  <svg xmlns="http://www.w3.org/2000/svg" viewBox="0 0 140.98 140.9">
            <title>MyJam logo</title>
            <path class="cls-1" fill="#ff9100" d="M71.77,1.23c.07-.4.12-.8.17-1.19-.48,0-.96-.04-1.45-.04-5.21,0-10.27.58-15.16,1.65-.82,4.54-.68,8.57-.51,11.01.22,3.07.74,7.42,2.14,12.58,4.14-3.38,6.82-6.64,8.47-8.97,1.76-2.48,5.17-7.85,6.34-15.04Z"/>
            <path class="cls-1" fill="#ff9100" d="M90.97,97.42c.89-1.18,2.72-3.69,3.22-7.2.67-4.76-1.57-8.32-2.72-10.08-1.18-1.81-3.31-5.08-8.09-7.02-4.09-1.67-8.01-1.5-9.85-1.32,3.82,10.33,7.65,20.67,11.47,31,1.55-.96,3.95-2.69,5.97-5.38Z"/>
            <path class="cls-1" fill="#ff9100" d="M63.21,76.59c-.94.81-2.68,2.34-3.82,4.79-1.25,2.68-1.07,4.94-1.02,5.47.05.52.31,2.72,2,5.07.7.97,1.8,2.51,3.97,3.59,1.45.72,1.96.87,4.01,1.68,1.78.71,2.6,1.48,2.48,2.41-.07.58-.68,1.19-1.38,1.42-.52.17-1.01.09-1.19.06-5.99-1.06-7.6-1.78-7.6-1.78-7.04-3.17-9.96-8.58-9.96-8.58-1.94-3.59-1.88-6.75-1.83-8.97.05-2.49.58-7,3.65-11.76,1.13-1.75,2.82-4.3,6.27-6.47,1.58-1,3.06-1.62,4.12-2-1.51-4.19-3.01-8.37-4.52-12.56-.99.8-2.41,1.99-4.05,3.48-4.26,3.87-9.58,8.72-13.31,15.36-2.09,3.72-5.38,9.58-4.51,17.15.75,6.59,4.26,11,5.15,12.07,4.79,5.77,11.18,8.04,13.48,8.83,6.09,2.09,11.43,2.06,13.41,1.99,4.57-.16,8.25-1.1,10.61-1.86-3.95-10.7-7.9-21.39-11.85-32.09-1.1.54-2.61,1.4-4.13,2.71Z"/>
            <path class="cls-1" fill="#ff9100" d="M80.46.72c.81,10.47-1.8,18.36-2.52,20.4-2.32,6.63-5.56,11.42-7.04,13.47-2.58,3.58-5.26,6.39-7.42,8.43,1.94,5.29,3.88,10.59,5.82,15.88,2.43-.65,8.36-1.93,15.13-.24,6.65,1.67,10.33,5.27,12.57,7.52,1.78,1.79,8.35,8.62,7.46,18.38-.6,6.56-4.29,11.4-6,13.64-2.44,3.19-5.16,5.49-5.97,6.16-2.03,1.67-3.97,2.94-5.54,3.85,1.44,3.58,3.12,8.02,4.84,13.16,3.33,9.96,3.41,12.42,3.13,14.62-.02.19-.06.42-.09.67,26.93-9.91,46.15-35.8,46.15-66.17,0-35.54-26.31-64.93-60.51-69.77Z"/>
            <path class="cls-1" fill="#ff9100" d="M50.17,133.11c.57-.96,3.8-6.4,10.45-7.21,5.03-.61,8.7,1.83,9.45,2.36,3.7,2.59,4.26,6.13,4.37,7.29.04.45.22,2.78-1.03,5.36,5-.2,9.86-.92,14.54-2.11.57-2.05.39-3.97.11-6.43-.37-3.25-1.2-5.44-2.96-9.98-1.91-4.9-3.46-8.83-4.48-11.37-3.16.95-8.27,2.16-14.58,2.16-12.53-.02-21.08-4.82-23.86-6.43-8.49-4.92-12.42-11.02-13.49-12.78-4.48-7.4-4.47-14.15-4.43-17.16.09-6.09,1.84-10.69,3.08-13.89,2.36-6.04,5.38-10.25,7.87-13.7,3.01-4.19,5.84-7.28,10.56-12.45,2.7-2.96,5.03-5.37,6.72-7.09-1.7-3.41-3.75-8.24-5.13-14.26-.61-2.64-1.44-6.38-1.63-10.94C19.02,14.51,0,40.27,0,70.49s20.41,57.82,48.63,67.02c.19-1.41.64-2.89,1.53-4.4Z"/>
        </svg>